<svg xmlns="http://www.w3.org/2000/svg" width="500" height="500" viewBox="0 0 500 500" version="1.1"><path d="M 335 114.583 C 321.356 118.182, 308.874 126.894, 300.125 138.923 C 297.294 142.815, 294.375 146, 293.639 146 C 292.640 146, 292.146 148.735, 291.697 156.750 C 290.957 169.975, 289.188 177.016, 283.847 188 C 276.112 203.910, 260.458 216.542, 239.753 223.584 C 230.529 226.721, 211.542 230.353, 208.438 229.574 C 204.970 228.703, 204.415 225.068, 206.982 220.035 C 213.215 207.818, 214.990 187.502, 211.114 172.739 C 208.952 164.506, 201.147 148.382, 199.464 148.673 C 198.913 148.768, 197.238 149.153, 195.740 149.529 C 193.415 150.113, 192.543 149.650, 189.768 146.356 C 179.712 134.420, 169.270 127.209, 156.500 123.380 C 148.127 120.870, 131.735 121.057, 123.326 123.759 C 97.589 132.029, 79.962 155.758, 80.015 182.064 C 80.053 201.448, 89.525 220.140, 105.102 231.575 C 110.960 235.875, 110.900 235.191, 106.929 252.500 C 105.022 260.809, 104.633 265.374, 104.623 279.500 C 104.607 302.785, 108.402 322.700, 116.164 340.057 C 118.786 345.923, 119.500 346.803, 120.991 346.005 C 128.684 341.888, 138.334 343.282, 144.446 349.393 C 149.738 354.686, 151.505 360.463, 150.551 369.364 C 150.106 373.526, 150.235 376.027, 150.918 376.449 C 151.498 376.808, 152.940 380.283, 154.121 384.171 C 156.266 391.235, 156.273 391.243, 163.884 396.126 C 195.771 416.584, 243.519 423.215, 288 413.362 C 331.291 403.774, 363.303 379.972, 380.546 344.552 C 390.919 323.242, 394.557 304.161, 393.710 275.500 C 393.154 256.697, 391.063 244.845, 386.063 232.160 C 384.928 229.281, 384 226.449, 384 225.865 C 384 225.282, 386.672 222.335, 389.938 219.316 C 402.399 207.801, 409.070 193.390, 409.787 176.440 C 410.293 164.479, 408.726 157.089, 403.331 146 C 396.244 131.435, 379.749 118.274, 363.897 114.537 C 355.902 112.653, 342.233 112.674, 335 114.583 M 310.500 225.367 C 304.151 228.851, 302.500 230.224, 302.500 232.019 C 302.500 233.264, 303.302 234.781, 304.282 235.391 C 305.730 236.292, 307.699 235.622, 314.782 231.816 C 322.567 227.634, 323.500 226.831, 323.500 224.316 C 323.500 219.947, 319.838 220.243, 310.500 225.367 M 170.485 229.048 C 169.543 232.016, 170.986 233.232, 180.459 237.453 C 188.994 241.256, 191.507 241.448, 192.682 238.387 C 193.728 235.660, 191.904 234.043, 183.709 230.432 C 174.661 226.446, 171.418 226.106, 170.485 229.048 M 307.500 270.086 C 297.291 277.233, 295.586 279.219, 297.123 282.179 C 298.387 284.613, 317.656 296, 320.511 296 C 324.760 296, 326.364 289.121, 322.464 287.625 C 321.662 287.317, 318.488 285.454, 315.411 283.486 L 309.817 279.908 316.909 274.928 C 322.397 271.073, 324 269.397, 324 267.509 C 324 265.118, 321.490 262.956, 318.816 263.042 C 318.092 263.066, 313 266.235, 307.500 270.086 M 178.514 271.168 L 175.758 273.335 176.194 287.810 C 176.624 302.114, 176.661 302.312, 179.370 304.642 C 182.761 307.558, 184.950 307.614, 188.437 304.871 L 191.143 302.742 190.822 288.282 C 190.501 273.846, 190.495 273.818, 187.694 271.411 C 184.228 268.432, 182.065 268.375, 178.514 271.168 M 241.706 282.627 C 240.320 284.013, 241.016 288.069, 242.750 288.708 C 245.493 289.721, 245.968 291.056, 245.985 297.795 C 246.004 305.895, 243.436 309.017, 236.795 308.968 C 231.548 308.929, 229.113 307.217, 226.487 301.716 C 224.918 298.431, 223.924 297.500, 221.987 297.500 C 215.695 297.500, 220.413 309.813, 228.527 314.568 C 231.924 316.559, 233 317.789, 233 319.678 C 233 324.584, 237.196 338.649, 241.051 346.669 C 246.624 358.260, 251.354 361.513, 255.709 356.750 C 258.973 353.180, 260.873 348.694, 263.109 339.275 C 264.255 334.449, 265.565 330.270, 266.020 329.988 C 266.475 329.707, 268.192 325.793, 269.835 321.290 C 271.478 316.788, 274.297 311.268, 276.100 309.025 C 278.729 305.754, 279.390 304.011, 279.439 300.223 C 279.495 295.892, 279.301 295.500, 277.109 295.500 C 274.623 295.500, 273.994 296.269, 271.929 301.827 C 270.338 306.111, 266.968 308.273, 261.882 308.273 C 255.673 308.273, 253.659 305.652, 253.166 296.931 C 252.806 290.553, 252.981 289.701, 254.940 288.330 C 256.278 287.392, 256.996 285.979, 256.807 284.653 C 256.531 282.715, 255.798 282.471, 249.456 282.210 C 245.582 282.051, 242.095 282.239, 241.706 282.627 M 262.332 315.850 L 260.163 316.500 262.779 320.913 L 265.396 325.326 267.124 321.413 C 268.074 319.261, 268.885 316.938, 268.926 316.250 C 269.004 314.936, 265.989 314.753, 262.332 315.850 M 247.299 329.131 C 245.539 329.626, 243.885 330.378, 243.623 330.801 C 242.989 331.827, 248.743 346.118, 250.518 347.923 C 251.725 349.150, 252.071 348.943, 253.030 346.423 C 255.057 341.098, 257.124 330.723, 256.305 329.984 C 254.806 328.632, 250.516 328.225, 247.299 329.131 M 92.059 350.168 C 87.019 351.615, 75.201 363.986, 71.196 372.008 C 61.071 392.285, 63.622 412.495, 77.200 419.589 C 81.166 421.661, 89.367 421.364, 94.042 418.979 C 104.328 413.731, 118 388.294, 118 374.405 C 118 368.230, 115.167 360.556, 111.160 355.874 C 105.707 349.503, 100.153 347.844, 92.059 350.168 M 126.037 354.110 C 124.682 354.651, 123.455 355.212, 123.310 355.356 C 123.166 355.501, 123.881 357.842, 124.900 360.560 C 125.918 363.277, 127.065 368.087, 127.448 371.250 C 128.101 376.647, 128.308 377, 130.822 376.996 C 135.276 376.990, 139.752 373.560, 141.077 369.138 C 142.623 363.977, 141.648 360.448, 137.541 356.341 C 134.031 352.831, 130.807 352.206, 126.037 354.110 M 139.740 384.577 C 138.222 385.401, 134.459 386.395, 131.377 386.787 L 125.774 387.500 123.532 393.699 C 118.582 407.379, 105.684 424.441, 97.527 428.098 L 93.553 429.880 96.342 430.940 C 97.875 431.523, 103.038 432.009, 107.815 432.021 L 116.500 432.041 125.500 438.102 C 148.460 453.565, 173.792 461.781, 200.249 462.346 C 207.982 462.511, 212.422 463.022, 213.242 463.842 C 214.167 464.767, 214.398 469.565, 214.141 482.543 L 213.797 500 265.792 500 L 317.787 500 316.825 496.210 L 315.863 492.420 304.832 491.248 C 295.423 490.248, 292.822 490.306, 287.150 491.642 C 278.777 493.615, 266.701 493.812, 261.556 492.060 C 256.005 490.170, 248.653 482.937, 245.955 476.714 C 242.715 469.236, 242.166 458.667, 244.721 452.917 C 249.329 442.546, 258.231 436.764, 269.814 436.618 C 281.937 436.466, 310.979 440.927, 320.959 444.474 C 325.811 446.199, 326.961 447.373, 326.985 450.628 C 327.015 454.888, 324.523 455.557, 317.185 453.256 C 308.645 450.579, 307.483 450.357, 289.500 447.988 C 271.392 445.602, 266.800 445.526, 262.544 447.546 C 254.625 451.304, 251.073 458.857, 253.044 467.748 C 256.275 482.327, 267.113 486.958, 286.436 482.016 C 292.511 480.463, 295.091 480.241, 298.346 480.992 C 304.601 482.436, 317.853 482.189, 324.307 480.508 C 335.462 477.603, 344.433 471.331, 346.939 464.685 C 351.385 452.892, 342.939 436.299, 327.500 426.496 C 320.931 422.325, 311.303 417.997, 308.629 418.013 C 307.458 418.020, 303.622 418.928, 300.104 420.031 C 283.702 425.172, 272.206 426.471, 243 426.486 C 217.922 426.499, 214.487 426.291, 204 424.126 C 188.546 420.937, 173.697 415.991, 163.181 410.530 C 158.407 408.051, 154.377 406.385, 154.228 406.828 C 154.078 407.271, 152.356 410.191, 150.401 413.317 C 147.386 418.136, 146.398 419, 143.901 419 C 141.792 419, 140.657 418.342, 139.899 416.678 C 139.013 414.732, 139.455 413.241, 142.635 407.455 C 146.781 399.914, 147.473 393.993, 145.064 386.693 C 143.695 382.545, 143.574 382.497, 139.740 384.577" stroke="none" fill="#f9f6f3" fill-rule="evenodd"/><path d="M 225 19.651 C 197.044 25.185, 175.048 37.800, 162.494 55.500 C 160.154 58.800, 157.095 63.778, 155.697 66.563 C 154.300 69.347, 152.403 72.250, 151.484 73.014 C 150.302 73.995, 145.072 74.614, 133.656 75.126 C 120.952 75.696, 115.484 76.407, 108.066 78.455 C 81.458 85.801, 58.720 103.681, 46.003 127.257 C 37.750 142.557, 34.474 155.819, 34.580 173.500 C 34.662 187.011, 35.568 192.008, 40.636 206.888 L 43.152 214.276 40.216 219.888 C 25.255 248.480, 24.561 250.722, 24.556 270.500 C 24.552 282.005, 24.950 285.890, 26.786 292.299 C 32.156 311.039, 43.413 326.634, 61 339.696 C 68.552 345.305, 71 347.779, 71 349.805 C 71 350.755, 69.304 354.450, 67.231 358.016 C 57.941 373.997, 54.566 385.205, 55.200 397.962 C 55.782 409.671, 59.138 417.031, 67.423 424.773 C 77.293 433.994, 89.737 439.611, 105.637 442.021 C 112.279 443.028, 115.814 444.442, 129.468 451.555 C 153.465 464.056, 164.030 467.536, 188.297 470.931 C 198.318 472.333, 201.657 473.178, 202.675 474.570 C 203.598 475.832, 204 479.965, 204 488.191 L 204 500 208.899 500 L 213.798 500 214.212 482.750 C 214.530 469.533, 214.322 465.161, 213.326 464.049 C 212.357 462.967, 209.032 462.534, 200.263 462.346 C 173.791 461.781, 148.465 453.568, 125.500 438.102 L 116.500 432.041 107.815 432.021 C 103.038 432.009, 97.875 431.523, 96.342 430.940 L 93.553 429.880 97.527 428.098 C 105.684 424.441, 118.582 407.379, 123.532 393.699 L 125.774 387.500 131.361 386.789 C 134.434 386.398, 138.287 385.386, 139.924 384.539 C 143.835 382.517, 143.661 382.444, 145.064 386.693 C 147.473 393.993, 146.781 399.914, 142.635 407.455 C 139.455 413.241, 139.013 414.732, 139.899 416.678 C 140.657 418.342, 141.792 419, 143.901 419 C 146.398 419, 147.386 418.136, 150.401 413.317 C 152.356 410.191, 154.078 407.271, 154.228 406.828 C 154.377 406.385, 158.407 408.051, 163.181 410.530 C 173.697 415.991, 188.546 420.937, 204 424.126 C 214.487 426.291, 217.922 426.499, 243 426.486 C 272.206 426.471, 283.702 425.172, 300.104 420.031 C 303.622 418.928, 307.458 418.020, 308.629 418.013 C 311.303 417.997, 320.931 422.325, 327.500 426.496 C 342.939 436.299, 351.385 452.892, 346.939 464.685 C 344.433 471.331, 335.462 477.603, 324.307 480.508 C 317.853 482.189, 304.601 482.436, 298.346 480.992 C 295.091 480.241, 292.511 480.463, 286.436 482.016 C 267.113 486.958, 256.275 482.327, 253.044 467.748 C 251.073 458.857, 254.625 451.304, 262.544 447.546 C 266.800 445.526, 271.392 445.602, 289.500 447.988 C 307.483 450.357, 308.645 450.579, 317.185 453.256 C 324.523 455.557, 327.015 454.888, 326.985 450.628 C 326.961 447.373, 325.811 446.199, 320.959 444.474 C 310.979 440.927, 281.937 436.466, 269.814 436.618 C 258.231 436.764, 249.329 442.546, 244.721 452.917 C 242.166 458.667, 242.715 469.236, 245.955 476.714 C 248.653 482.937, 256.005 490.170, 261.556 492.060 C 266.701 493.812, 278.777 493.615, 287.150 491.642 C 292.824 490.305, 295.421 490.247, 304.851 491.250 L 315.902 492.424 316.734 495.962 C 317.541 499.391, 317.725 499.509, 322.723 499.800 L 327.880 500.100 328.190 495.800 C 328.497 491.546, 328.582 491.457, 336.085 487.500 C 340.257 485.300, 345.455 482.071, 347.636 480.324 C 362.917 468.085, 360.854 440.844, 343.551 426.381 C 341.048 424.288, 339 422.098, 339 421.512 C 339 420.833, 342.883 420.410, 349.750 420.344 C 370.672 420.141, 388.309 413.871, 401.204 402.052 C 415.863 388.616, 423.010 372.638, 424.488 350 C 425.366 336.549, 425.361 336.563, 431.247 332.958 C 446.883 323.380, 457.501 311.914, 465.134 296.365 C 473.619 279.079, 475.763 263.173, 472.040 245.128 C 469.800 234.273, 465.541 224.764, 457.044 211.647 C 449.978 200.740, 449.886 200.026, 453.619 185.118 C 456.022 175.522, 456.196 173.455, 455.728 160.079 C 455.142 143.329, 453.296 135.497, 446.927 122.733 C 432.542 93.906, 409.248 75.545, 377.340 67.882 C 369.466 65.991, 366.546 65.817, 350.615 66.290 C 329.902 66.904, 332.514 68.031, 322.764 54.272 C 313.966 41.858, 303.297 33.641, 287.366 27.009 C 273.148 21.090, 266.270 19.838, 246 19.482 C 235.825 19.303, 226.375 19.379, 225 19.651 M 335 114.583 C 321.356 118.182, 308.874 126.894, 300.125 138.923 C 297.294 142.815, 294.375 146, 293.639 146 C 292.640 146, 292.146 148.735, 291.697 156.750 C 290.957 169.975, 289.188 177.016, 283.847 188 C 276.112 203.910, 260.458 216.542, 239.753 223.584 C 230.529 226.721, 211.542 230.353, 208.438 229.574 C 204.970 228.703, 204.415 225.068, 206.982 220.035 C 213.215 207.818, 214.990 187.502, 211.114 172.739 C 208.952 164.506, 201.147 148.382, 199.464 148.673 C 198.913 148.768, 197.238 149.153, 195.740 149.529 C 193.415 150.113, 192.543 149.650, 189.768 146.356 C 179.712 134.420, 169.270 127.209, 156.500 123.380 C 148.127 120.870, 131.735 121.057, 123.326 123.759 C 97.589 132.029, 79.962 155.758, 80.015 182.064 C 80.053 201.448, 89.525 220.140, 105.102 231.575 C 110.960 235.875, 110.900 235.191, 106.929 252.500 C 105.022 260.809, 104.633 265.374, 104.623 279.500 C 104.607 302.785, 108.402 322.700, 116.164 340.057 C 118.786 345.923, 119.500 346.803, 120.991 346.005 C 128.684 341.888, 138.334 343.282, 144.446 349.393 C 149.738 354.686, 151.505 360.463, 150.551 369.364 C 150.106 373.526, 150.235 376.027, 150.918 376.449 C 151.498 376.808, 152.940 380.283, 154.121 384.171 C 156.266 391.235, 156.273 391.243, 163.884 396.126 C 195.771 416.584, 243.519 423.215, 288 413.362 C 331.291 403.774, 363.303 379.972, 380.546 344.552 C 390.919 323.242, 394.557 304.161, 393.710 275.500 C 393.154 256.697, 391.063 244.845, 386.063 232.160 C 384.928 229.281, 384 226.449, 384 225.865 C 384 225.282, 386.672 222.335, 389.938 219.316 C 402.399 207.801, 409.070 193.390, 409.787 176.440 C 410.293 164.479, 408.726 157.089, 403.331 146 C 396.244 131.435, 379.749 118.274, 363.897 114.537 C 355.902 112.653, 342.233 112.674, 335 114.583 M 310.500 225.367 C 304.151 228.851, 302.500 230.224, 302.500 232.019 C 302.500 233.264, 303.302 234.781, 304.282 235.391 C 305.730 236.292, 307.699 235.622, 314.782 231.816 C 322.567 227.634, 323.500 226.831, 323.500 224.316 C 323.500 219.947, 319.838 220.243, 310.500 225.367 M 170.485 229.048 C 169.543 232.016, 170.986 233.232, 180.459 237.453 C 188.994 241.256, 191.507 241.448, 192.682 238.387 C 193.728 235.660, 191.904 234.043, 183.709 230.432 C 174.661 226.446, 171.418 226.106, 170.485 229.048 M 307.500 270.086 C 297.291 277.233, 295.586 279.219, 297.123 282.179 C 298.387 284.613, 317.656 296, 320.511 296 C 324.760 296, 326.364 289.121, 322.464 287.625 C 321.662 287.317, 318.488 285.454, 315.411 283.486 L 309.817 279.908 316.909 274.928 C 322.397 271.073, 324 269.397, 324 267.509 C 324 265.118, 321.490 262.956, 318.816 263.042 C 318.092 263.066, 313 266.235, 307.500 270.086 M 178.514 271.168 L 175.758 273.335 176.194 287.810 C 176.624 302.114, 176.661 302.312, 179.370 304.642 C 182.761 307.558, 184.950 307.614, 188.437 304.871 L 191.143 302.742 190.822 288.282 C 190.501 273.846, 190.495 273.818, 187.694 271.411 C 184.228 268.432, 182.065 268.375, 178.514 271.168 M 241.706 282.627 C 240.320 284.013, 241.016 288.069, 242.750 288.708 C 245.493 289.721, 245.968 291.056, 245.985 297.795 C 246.004 305.895, 243.436 309.017, 236.795 308.968 C 231.548 308.929, 229.113 307.217, 226.487 301.716 C 224.918 298.431, 223.924 297.500, 221.987 297.500 C 215.695 297.500, 220.413 309.813, 228.527 314.568 C 231.924 316.559, 233 317.789, 233 319.678 C 233 324.584, 237.196 338.649, 241.051 346.669 C 246.624 358.260, 251.354 361.513, 255.709 356.750 C 258.973 353.180, 260.873 348.694, 263.109 339.275 C 264.255 334.449, 265.565 330.270, 266.020 329.988 C 266.475 329.707, 268.192 325.793, 269.835 321.290 C 271.478 316.788, 274.297 311.268, 276.100 309.025 C 278.729 305.754, 279.390 304.011, 279.439 300.223 C 279.495 295.892, 279.301 295.500, 277.109 295.500 C 274.623 295.500, 273.994 296.269, 271.929 301.827 C 270.338 306.111, 266.968 308.273, 261.882 308.273 C 255.673 308.273, 253.659 305.652, 253.166 296.931 C 252.806 290.553, 252.981 289.701, 254.940 288.330 C 256.278 287.392, 256.996 285.979, 256.807 284.653 C 256.531 282.715, 255.798 282.471, 249.456 282.210 C 245.582 282.051, 242.095 282.239, 241.706 282.627 M 262.332 315.850 L 260.163 316.500 262.779 320.913 L 265.396 325.326 267.124 321.413 C 268.074 319.261, 268.885 316.938, 268.926 316.250 C 269.004 314.936, 265.989 314.753, 262.332 315.850 M 247.299 329.131 C 245.539 329.626, 243.885 330.378, 243.623 330.801 C 242.989 331.827, 248.743 346.118, 250.518 347.923 C 251.725 349.150, 252.071 348.943, 253.030 346.423 C 255.057 341.098, 257.124 330.723, 256.305 329.984 C 254.806 328.632, 250.516 328.225, 247.299 329.131 M 92.059 350.168 C 87.019 351.615, 75.201 363.986, 71.196 372.008 C 61.071 392.285, 63.622 412.495, 77.200 419.589 C 81.166 421.661, 89.367 421.364, 94.042 418.979 C 104.328 413.731, 118 388.294, 118 374.405 C 118 368.230, 115.167 360.556, 111.160 355.874 C 105.707 349.503, 100.153 347.844, 92.059 350.168 M 126.037 354.110 C 124.682 354.651, 123.455 355.212, 123.310 355.356 C 123.166 355.501, 123.881 357.842, 124.900 360.560 C 125.918 363.277, 127.065 368.087, 127.448 371.250 C 128.101 376.647, 128.308 377, 130.822 376.996 C 135.276 376.990, 139.752 373.560, 141.077 369.138 C 142.623 363.977, 141.648 360.448, 137.541 356.341 C 134.031 352.831, 130.807 352.206, 126.037 354.110" stroke="none" fill="#215184" fill-rule="evenodd"/></svg>